PathFileType	4	(X/Y/Z)	./resultDataOpenSim/trcMotMarkerGrf/sub10/qtm-14-01.trc
DataRate	CameraRate	NumFrames	NumMarkers	Units	OrigDataRate	OrigDataStartFrame	OrigNumFrames
250.000000	250.000000	11	24	m	250.000000	114	454
Frame#	Time	L.Toe.Tip			R.Toe.Tip			L.Ankle.Lat			R.Ankle.Lat			L.Ankle.Med			R.Ankle.Med			L.Heel			R.Heel			L.Knee.Lat			R.Knee.Lat			L.Knee.Med			R.Knee.Med			L.Thigh.Upper			R.Thigh.Upper			L.ASIS			R.ASIS			V.Sacral			L.Acromium			R.Acromium			C7			L.Elbow			R.Elbow			L.Wrist.Lat			R.Wrist.Lat
		X1	Y1	Z1	X2	Y2	Z2	X3	Y3	Z3	X4	Y4	Z4	X5	Y5	Z5	X6	Y6	Z6	X7	Y7	Z7	X8	Y8	Z8	X9	Y9	Z9	X10	Y10	Z10	X11	Y11	Z11	X12	Y12	Z12	X13	Y13	Z13	X14	Y14	Z14	X15	Y15	Z15	X16	Y16	Z16	X17	Y17	Z17	X18	Y18	Z18	X19	Y19	Z19	X20	Y20	Z20	X21	Y21	Z21	X22	Y22	Z22	X23	Y23	Z23	X24	Y24	Z24

114	0.452	-0.26671575	0.072072905	-0.11344605	-0.73387376	0.038542982	0.0027613151	-0.40224	0.08116494	-0.13539078	-0.86678156	0.058269444	0.056760569	-0.38998714	0.11205621	-0.05429746	-0.8581133	0.08679138	-0.029182286	-0.45840467	0.045037861	-0.081933412	-0.92604263	0.036578443	0.013348682	-0.43193159	0.46750611	-0.17884664	-0.75534755	0.44600869	0.097544067	-0.410878	0.45935029	-0.060305659	-0.75702524	0.45037582	-0.03387738	-0.59355737	0.8221622	-0.24090563	-0.65562828	0.85233812	0.14025023	-0.54595314	0.93083901	-0.16568431	-0.56917548	0.93750697	0.079328195	-0.7537113	0.95564357	-0.069556262	-0.588317	1.4018685	-0.20427222	-0.60822722	1.401404	0.11571318	-0.67509562	1.4363069	-0.051460013	-0.74231493	1.0918792	-0.23592079	-0.6939281	1.0716229	0.2303273	-0.65023796	0.86456677	-0.28764779	-0.49502929	0.91980482	0.26212081
115	0.456	-0.24711145	0.074575491	-0.11151891	-0.73382941	0.038503137	0.0027221356	-0.38279849	0.079946648	-0.13399543	-0.86684521	0.058465981	0.056399197	-0.37144004	0.11161701	-0.052893529	-0.85798525	0.087060869	-0.029666767	-0.43764924	0.042383579	-0.081110129	-0.92594377	0.036800278	0.012998321	-0.42521328	0.46531351	-0.17858967	-0.75329448	0.44576368	0.097752013	-0.40421911	0.45750673	-0.060220827	-0.75470077	0.4500704	-0.03364052	-0.58579583	0.82104501	-0.24138786	-0.65028662	0.85102733	0.13985161	-0.53865888	0.92955913	-0.16593449	-0.56306623	0.93583998	0.079188001	-0.74715469	0.95395641	-0.07085474	-0.58230431	1.399981	-0.20436193	-0.60173342	1.3997983	0.11579576	-0.66916378	1.4346422	-0.051277949	-0.73718241	1.0904823	-0.23456579	-0.68573863	1.0699867	0.23238413	-0.64608195	0.86304417	-0.28774887	-0.484267	0.92115165	0.26168691
116	0.46	-0.22801115	0.077489507	-0.10966658	-0.73378328	0.038487262	0.0026724281	-0.36374637	0.07901583	-0.13272129	-0.86697684	0.058654558	0.055911551	-0.35339073	0.11137092	-0.051601339	-0.85785601	0.087403555	-0.030246956	-0.417204	0.039981494	-0.080311906	-0.92590305	0.037110811	0.01242524	-0.41849332	0.4629645	-0.17834716	-0.75099743	0.44553355	0.09795678	-0.39757664	0.45549804	-0.060078069	-0.75221424	0.4497638	-0.033458486	-0.57806178	0.81986647	-0.24188572	-0.64494714	0.84970641	0.13947326	-0.53137674	0.9282081	-0.16609448	-0.55694372	0.93413291	0.079026303	-0.74045304	0.95222028	-0.072358023	-0.57628356	1.3980536	-0.2044379	-0.59525975	1.3981394	0.11582803	-0.66331316	1.432911	-0.051083278	-0.73230698	1.0890495	-0.23350699	-0.67754615	1.068309	0.23443181	-0.64202033	0.8615364	-0.28776586	-0.47354702	0.92249277	0.26117193
117	0.464	-0.20949624	0.080811518	-0.10791468	-0.73373895	0.038479779	0.0026132024	-0.34517957	0.078368093	-0.13159282	-0.86733446	0.058884169	0.055282025	-0.33587966	0.11138215	-0.050537016	-0.85767872	0.087789229	-0.030851849	-0.39730686	0.037964751	-0.079399401	-0.92592057	0.037529886	0.011659766	-0.41175895	0.46049856	-0.17812243	-0.74852809	0.44530672	0.098118209	-0.39093424	0.45334664	-0.059866984	-0.74957671	0.44945131	-0.033361987	-0.57035115	0.81864473	-0.24238757	-0.63961522	0.84840401	0.1391185	-0.52401486	0.92671343	-0.1662609	-0.55080512	0.93239477	0.078862419	-0.73357144	0.9504318	-0.074098936	-0.57025461	1.3960932	-0.20449475	-0.58882517	1.3964271	0.11581146	-0.65736866	1.4311275	-0.050915318	-0.72778652	1.0875758	-0.2329816	-0.66934624	1.0665876	0.23646054	-0.63812261	0.86004542	-0.28767486	-0.46278587	0.9238558	0.26059393
118	0.468	-0.19163076	0.08449144	-0.10630045	-0.73369047	0.038477577	0.0025559867	-0.32716983	0.077992209	-0.13062794	-0.86794552	0.059193256	0.054546802	-0.31893171	0.11165758	-0.049784479	-0.85747157	0.088145637	-0.031440173	-0.37803309	0.036290211	-0.078474254	-0.92596036	0.038026283	0.010836916	-0.40500832	0.45795863	-0.17792248	-0.74599831	0.44505396	0.098179562	-0.38430253	0.45107232	-0.05958451	-0.74685916	0.44911354	-0.033393241	-0.56262686	0.81738483	-0.24285691	-0.6343063	0.8471411	0.13878924	-0.51655514	0.9251071	-0.16644059	-0.54466125	0.93063006	0.078709299	-0.72656271	0.94858081	-0.075974974	-0.56422357	1.3941042	-0.20454108	-0.58239611	1.3946665	0.11577347	-0.65112529	1.4292994	-0.050828728	-0.72340471	1.0860795	-0.23271757	-0.66113096	1.064826	0.23844852	-0.63437897	0.85853438	-0.28752866	-0.45199769	0.92526638	0.26000943
119	0.472	-0.17444813	0.088447646	-0.10484271	-0.73362798	0.038484298	0.0025132733	-0.30975654	0.077856665	-0.12982409	-0.86853349	0.059576948	0.053829856	-0.30255237	0.11213164	-0.049337697	-0.85726956	0.088439041	-0.032006013	-0.35934841	0.034831599	-0.077718772	-0.9259937	0.038566937	0.010077144	-0.3982363	0.45538913	-0.17775281	-0.74347469	0.44474921	0.09809575	-0.37769308	0.44869764	-0.059222107	-0.74416583	0.44871635	-0.033592154	-0.55484977	0.81607348	-0.24326283	-0.62904192	0.84591899	0.13849334	-0.50907347	0.92348946	-0.16654715	-0.5385325	0.9288394	0.078574846	-0.7195183	0.94664601	-0.077829582	-0.55819563	1.3920921	-0.20458677	-0.57592146	1.3928659	0.11574436	-0.64460324	1.4274389	-0.050830244	-0.71893772	1.0845793	-0.23239021	-0.65289442	1.0630324	0.24037528	-0.63069947	0.85694593	-0.28739312	-0.44125376	0.92673154	0.25947028
120	0.476	-0.15796013	0.092582846	-0.1035257	-0.73355177	0.038498924	0.0024831909	-0.29294925	0.077926491	-0.12916968	-0.8687032	0.060001439	0.053275178	-0.2867731	0.11269755	-0.049065743	-0.85702999	0.08869237	-0.032545381	-0.34124857	0.033513819	-0.077241484	-0.92601111	0.039136276	0.0094033433	-0.39141397	0.45284055	-0.17760593	-0.7409657	0.44438367	0.097854467	-0.37110333	0.44624874	-0.058765798	-0.74147772	0.44823691	-0.033960756	-0.54696967	0.81470139	-0.24358542	-0.62383864	0.84472418	0.1382341	-0.50164858	0.92192341	-0.1665108	-0.53242524	0.92702676	0.078469849	-0.71250656	0.94461236	-0.079551597	-0.55217277	1.3900643	-0.20463263	-0.56939049	1.3910297	0.11572916	-0.63809032	1.4255707	-0.050865788	-0.71431589	1.0830811	-0.23188618	-0.64465432	1.0612207	0.24226247	-0.62689464	0.85523879	-0.28728358	-0.43061515	0.92823836	0.25898475
121	0.48	-0.14218291	0.096778589	-0.1023144	-0.73348733	0.03850954	0.0024498952	-0.27673355	0.078182456	-0.12866874	-0.86835587	0.060434262	0.052916474	-0.27166172	0.11325197	-0.048824266	-0.85663831	0.088950373	-0.033021271	-0.32381183	0.032342923	-0.0770666	-0.92601651	0.039747046	0.0087279861	-0.38448642	0.45037134	-0.17745756	-0.73846581	0.4439513	0.097478335	-0.36452011	0.44375544	-0.058203734	-0.73850566	0.44769249	-0.034434297	-0.53893287	0.81325606	-0.24378595	-0.61870143	0.84354238	0.13800018	-0.49428189	0.92039361	-0.16632453	-0.52632422	0.92519922	0.078404222	-0.70554796	0.94248926	-0.081110624	-0.54615245	1.3880269	-0.20467476	-0.56283181	1.3891569	0.11571158	-0.63187696	1.4237048	-0.050874649	-0.70957489	1.0815816	-0.23125698	-0.63648206	1.0594191	0.24423036	-0.62274234	0.85342366	-0.28716241	-0.42011206	0.92976171	0.25853326
122	0.484	-0.12713951	0.10088629	-0.10117908	-0.73348239	0.038506835	0.0024080772	-0.26110374	0.07860587	-0.12834212	-0.86783251	0.06086073	0.052637073	-0.2572788	0.11372499	-0.048599361	-0.8560314	0.089229976	-0.033389131	-0.30713987	0.031355923	-0.077203277	-0.92601722	0.040432789	0.0079094487	-0.37740355	0.44803933	-0.17727325	-0.73596296	0.44343572	0.097000116	-0.35792161	0.44125703	-0.057532115	-0.73481698	0.4471296	-0.034911505	-0.53075046	0.81167241	-0.24381711	-0.61362464	0.84235961	0.13777405	-0.4869102	0.91883906	-0.16602547	-0.52022417	0.92335789	0.078384114	-0.69863006	0.94030763	-0.082528978	-0.54012735	1.3859859	-0.2047149	-0.55627042	1.3872432	0.11567457	-0.62599283	1.4218091	-0.050834728	-0.70476407	1.0800779	-0.23059176	-0.62849668	1.0576669	0.24649227	-0.61823566	0.85158146	-0.28698269	-0.40975177	0.93128116	0.25809888
123	0.488	-0.11283948	0.10474153	-0.10010866	-0.73356692	0.038498874	0.0023758097	-0.24610415	0.079149118	-0.12820563	-0.86760594	0.061291946	0.052271761	-0.24363298	0.11408993	-0.048460213	-0.85529468	0.089507011	-0.033658585	-0.29128229	0.030566018	-0.077678311	-0.92601554	0.041209766	0.0068894572	-0.37014896	0.44587849	-0.17701591	-0.73336015	0.44283321	0.096448361	-0.35126141	0.43881074	-0.056752256	-0.73024779	0.44656217	-0.035341375	-0.52254897	0.80983954	-0.24368355	-0.60859558	0.84115418	0.13754268	-0.47948039	0.91720598	-0.16565252	-0.51414384	0.92149579	0.078420445	-0.69173062	0.93810781	-0.083841899	-0.53409034	1.38395	-0.20476561	-0.54970959	1.3852871	0.11561247	-0.62022725	1.4198431	-0.050766485	-0.69990616	1.078572	-0.22994724	-0.62075592	1.0559764	0.24915838	-0.61372623	0.84983769	-0.28674026	-0.39952052	0.93279758	0.25767194
124	0.492	-0.099276162	0.10819106	-0.099121021	-0.73370259	0.038499251	0.0023727536	-0.23181048	0.079737895	-0.1282529	-0.86785113	0.061758111	0.05175252	-0.23066635	0.11435792	-0.048433733	-0.85462203	0.089757148	-0.033903802	-0.27625161	0.029937757	-0.07848892	-0.92600533	0.042050999	0.0058173671	-0.36274534	0.4438793	-0.17666718	-0.73048279	0.44216458	0.095851856	-0.3444652	0.43648796	-0.055865548	-0.72514911	0.44592117	-0.035763637	-0.514444	0.80772304	-0.24344404	-0.60359661	0.83989684	0.1372967	-0.47198718	0.91547814	-0.16521627	-0.50809767	0.9196079	0.078530784	-0.68483103	0.93592954	-0.085074946	-0.52804038	1.3819272	-0.20484714	-0.54314447	1.3832971	0.11552781	-0.61438051	1.4178089	-0.050708201	-0.69500463	1.0770687	-0.22934095	-0.61313008	1.0542951	0.25198994	-0.60961721	0.84826672	-0.28646188	-0.38940125	0.93432654	0.25724778
